<svg viewBox="0 0 100 100" fill="none" xmlns="http://www.w3.org/2000/svg">
  <!-- Outer Dark Ring -->
  <circle cx="50" cy="50" r="48" fill="#0A1810" stroke="#1F3D29" stroke-width="2"/>
  <g transform="translate(50, 50)">
    <!-- 16 Radial Geometric Blades -->
    <path d="M -3 -12 L 0 -45 L 6 -43 L 3 -12 Z" transform="rotate(0)" fill="#B4F82C" fill-opacity="1"/>
    <path d="M -3 -12 L 0 -45 L 6 -43 L 3 -12 Z" transform="rotate(22.5)" fill="#4ADE80" fill-opacity="0.55"/>
    <path d="M -3 -12 L 0 -45 L 6 -43 L 3 -12 Z" transform="rotate(45)" fill="#E8EDE0" fill-opacity="0.85"/>
    <path d="M -3 -12 L 0 -45 L 6 -43 L 3 -12 Z" transform="rotate(67.5)" fill="#4ADE80" fill-opacity="0.55"/>
    <path d="M -3 -12 L 0 -45 L 6 -43 L 3 -12 Z" transform="rotate(90)" fill="#B4F82C" fill-opacity="1"/>
    <path d="M -3 -12 L 0 -45 L 6 -43 L 3 -12 Z" transform="rotate(112.5)" fill="#4ADE80" fill-opacity="0.55"/>
    <path d="M -3 -12 L 0 -45 L 6 -43 L 3 -12 Z" transform="rotate(135)" fill="#E8EDE0" fill-opacity="0.85"/>
    <path d="M -3 -12 L 0 -45 L 6 -43 L 3 -12 Z" transform="rotate(157.5)" fill="#4ADE80" fill-opacity="0.55"/>
    <path d="M -3 -12 L 0 -45 L 6 -43 L 3 -12 Z" transform="rotate(180)" fill="#B4F82C" fill-opacity="1"/>
    <path d="M -3 -12 L 0 -45 L 6 -43 L 3 -12 Z" transform="rotate(202.5)" fill="#4ADE80" fill-opacity="0.55"/>
    <path d="M -3 -12 L 0 -45 L 6 -43 L 3 -12 Z" transform="rotate(225)" fill="#E8EDE0" fill-opacity="0.85"/>
    <path d="M -3 -12 L 0 -45 L 6 -43 L 3 -12 Z" transform="rotate(247.5)" fill="#4ADE80" fill-opacity="0.55"/>
    <path d="M -3 -12 L 0 -45 L 6 -43 L 3 -12 Z" transform="rotate(270)" fill="#B4F82C" fill-opacity="1"/>
    <path d="M -3 -12 L 0 -45 L 6 -43 L 3 -12 Z" transform="rotate(292.5)" fill="#4ADE80" fill-opacity="0.55"/>
    <path d="M -3 -12 L 0 -45 L 6 -43 L 3 -12 Z" transform="rotate(315)" fill="#E8EDE0" fill-opacity="0.85"/>
    <path d="M -3 -12 L 0 -45 L 6 -43 L 3 -12 Z" transform="rotate(337.5)" fill="#4ADE80" fill-opacity="0.55"/>
    
    <!-- Central Power Hub -->
    <circle cx="0" cy="0" r="10" fill="#07110C" stroke="#B4F82C" stroke-width="3"/>
    <circle cx="0" cy="0" r="4" fill="#B4F82C"/>
  </g>
</svg>
